<svg xmlns="http://www.w3.org/2000/svg" width="285" height="325" fill="none" viewBox="0 0 285 325">
  <path fill="#1089FF" d="M252.7 100c-7.5 22-22 36.5-45 37.4-22.8.9-22.8-16.8-22.8-37.5 0-20.6 36.3-72.2 57.8-72.2 21.4 0 17.5 50.2 10 72.2zM284.3 174.8c0 32-14.6 66.3-34 66.3-19.3 0-36.5-12-36.5-32.6 0-20.7 2.8-38.9 30.8-59 28-20.2 39.7 4.6 39.7 25.3zM173.4 71.3c-6.6 25.6-19 43.6-41.8 43.6-23 0-33-25.5-33-46.2C98.5 48 140.7-1 159.7.4c18.9 1.3 20.2 45.4 13.6 71zM84.3 104.3c0 20.7 2.3 38.8-35.5 41-38 2.2-36.2-25.6-36.2-46.2 0-20.7 32.7-63.7 45.4-63.7 12.6 0 26.3 48.2 26.3 68.9zM182.8 313.8C142 346 112.2 294.2 79.2 272.2S-4.5 262 .8 211.4c2.5-24.2 53.5-35.4 71.7-45.6 18.1-10.3 47.7-56.4 96.5-30.6 49.3 30.6 20.8 62.4 19.3 90.7-1.5 28.2 35.2 55.8-5.5 88z"/>
</svg>

